<?xml version="1.0" encoding="UTF-8" standalone="no"?><!DOCTYPE svg PUBLIC "-//W3C//DTD SVG 1.1//EN" "http://www.w3.org/Graphics/SVG/1.1/DTD/svg11.dtd"><svg width="100%" height="100%" viewBox="0 0 245 170" version="1.1" xmlns="http://www.w3.org/2000/svg" xmlns:xlink="http://www.w3.org/1999/xlink" xml:space="preserve" xmlns:serif="http://www.serif.com/" style="fill-rule:evenodd;clip-rule:evenodd;stroke-linejoin:round;stroke-miterlimit:2;"><g><path d="M126.192,83.985c0,10.095 -1.7,20.334 -5.101,30.716c-3.401,10.381 -8.18,19.582 -14.338,27.601c-7.303,9.379 -15.393,16.289 -24.272,20.728c-8.878,4.439 -18.114,6.658 -27.708,6.658c-12.745,0 -22.876,-2.974 -30.394,-8.924c-7.518,-5.949 -11.276,-14.479 -11.276,-25.589c-0,-3.44 0.572,-7.131 1.718,-11.074c1.145,-3.942 2.577,-8.566 4.296,-13.871c1.432,-4.515 2.774,-8.977 4.027,-13.385c1.253,-4.408 1.88,-8.584 1.88,-12.526c-0,-3.871 -0.86,-6.631 -2.578,-8.279c-1.718,-1.648 -4.797,-2.473 -9.236,-2.473c-2.291,0 -4.636,0.358 -7.035,1.074c-2.398,0.716 -4.457,1.397 -6.175,2.041l2.361,-9.666c5.798,-2.363 11.346,-4.385 16.642,-6.068c5.296,-1.682 10.306,-2.524 15.03,-2.524c8.517,0 15.084,2.133 19.7,6.398c4.617,4.265 6.925,9.551 6.925,15.859c-0,4.659 -0.626,9.605 -1.878,14.837c-1.252,5.233 -2.557,9.927 -3.915,14.085c-1.216,3.727 -2.486,8.01 -3.809,12.849c-1.324,4.838 -1.985,8.691 -1.985,11.558c-0,6.093 1.468,10.967 4.404,14.622c2.936,3.656 7.662,5.484 14.179,5.484c9.739,-0 18.19,-3.634 25.351,-10.901c7.161,-7.267 10.741,-17.059 10.741,-29.374c0,-1.217 -0.071,-2.541 -0.215,-3.973c-0.143,-1.432 -0.429,-3.043 -0.859,-4.833c-0.787,-1.647 -2.327,-3.401 -4.618,-5.263c-2.291,-1.861 -4.224,-3.58 -5.799,-5.155c-2.077,-2.076 -3.903,-4.528 -5.478,-7.356c-1.575,-2.829 -2.362,-6.498 -2.362,-11.009c-0,-3.794 0.733,-6.873 2.201,-9.236c1.468,-2.363 3.24,-4.296 5.316,-5.799c1.719,-1.218 3.777,-2.184 6.176,-2.9c2.398,-0.716 4.636,-1.074 6.712,-1.074c6.659,-0 11.885,2.381 15.68,7.142c3.795,4.761 5.692,11.295 5.692,19.6Z" style="fill:#f6ae2d;fill-rule:nonzero;"/><path d="M244.061,98.376c0,9.738 -1.647,18.992 -4.94,27.763c-3.294,8.77 -8.019,16.306 -14.177,22.607c-6.515,6.658 -14.248,11.813 -23.197,15.465c-8.95,3.651 -18.902,5.477 -29.857,5.477c-2.649,0 -6.551,-0.286 -11.706,-0.859c-5.155,-0.573 -9.773,-1.575 -13.855,-3.007c-5.155,-1.79 -10.005,-4.332 -14.552,-7.625c-4.546,-3.294 -8.538,-7.59 -11.975,-12.888l26.982,-115.775c0.287,-1.217 0.501,-2.362 0.645,-3.436c0.143,-1.074 0.214,-1.969 0.214,-2.685c0,-2.363 -0.448,-4.332 -1.344,-5.907c-0.896,-1.575 -2.168,-2.828 -3.817,-3.759c-1.649,-0.859 -3.603,-1.504 -5.861,-1.933c-2.258,-0.43 -4.857,-0.788 -7.797,-1.074l1.933,-7.948l56.618,-2.792l1.182,1.718l-16.221,69.594l0.752,0c1.647,-1.36 3.437,-2.739 5.369,-4.135c1.933,-1.396 4.51,-2.953 7.73,-4.672c2.435,-1.288 5.638,-2.488 9.611,-3.597c3.972,-1.11 7.569,-1.665 10.79,-1.665c12.456,-0 21.815,3.669 28.078,11.008c6.264,7.339 9.395,17.381 9.395,30.125Zm-38.448,-0.429c-0,-3.509 -0.251,-6.749 -0.752,-9.72c-0.501,-2.971 -1.395,-5.531 -2.683,-7.679c-1.289,-2.219 -3.025,-3.938 -5.207,-5.155c-2.183,-1.217 -4.92,-1.826 -8.213,-1.826c-3.649,0 -7.12,1.021 -10.412,3.061c-3.293,2.041 -6.227,4.421 -8.804,7.142l-13.525,59.928c0,1.718 0.251,3.473 0.752,5.263c0.501,1.789 1.467,3.651 2.898,5.584c1.431,2.005 3.005,3.544 4.723,4.618c1.718,1.074 4.187,1.611 7.408,1.611c4.866,0 9.429,-1.808 13.687,-5.423c4.259,-3.616 7.819,-8.359 10.68,-14.231c3.149,-6.3 5.511,-12.941 7.086,-19.922c1.575,-6.981 2.362,-14.731 2.362,-23.251Z" style="fill:#f6ae2d;fill-rule:nonzero;"/></g></svg>